<?xml version="1.0" encoding="utf-8"?><svg xmlns="http://www.w3.org/2000/svg" xmlns:xlink="http://www.w3.org/1999/xlink"><symbol viewBox="0 0 186.846 186.846" id="dribble" xmlns="http://www.w3.org/2000/svg"><path d="M93.423.001C41.909.001 0 41.91 0 93.423s41.909 93.422 93.423 93.422 93.423-41.909 93.423-93.422S144.937.001 93.423.001zm60.88 44.06c10.488 12.91 16.945 29.205 17.482 46.968-19.428-4.022-37.02-3.55-52.55-.505a365.92 365.92 0 0 0-8.661-18.762c16.913-7.286 31.637-16.592 43.729-27.701zm-10.524-10.696c-12.003 10.956-25.913 19.068-40.156 25.057-10.454-19.117-20.456-33.513-26.549-41.694a78.382 78.382 0 0 1 16.349-1.727c19.157 0 36.722 6.914 50.356 18.364zM61.924 21.627c4.601 5.962 15.56 20.89 27.332 42.129C59.67 73.395 30.962 75.019 17.167 75.17c5.75-24.02 22.571-43.771 44.757-53.543zM15.082 90.208l.442.001c9.532 0 26.996-.641 47.556-4.39 11.73-2.139 22.853-5.018 33.29-8.586a359.016 359.016 0 0 1 8.037 17.114c-14.614 4.705-26.938 11.475-36.7 18.197-16.37 11.273-27.838 23.78-34.1 31.513C22.013 130.384 15 112.712 15 93.423c0-1.078.038-2.147.082-3.215zm29.334 64.374c5.391-6.788 16.364-19.143 32.237-29.984 10.787-7.368 21.947-12.842 33.436-16.435 6.666 17.278 12.357 36.369 15.75 56.64a77.937 77.937 0 0 1-32.416 7.042c-18.532 0-35.571-6.475-49.007-17.263zm95.223 2.144c-3.497-18.617-8.712-36.122-14.741-52.12 14.83-2.502 30.157-1.986 45.899 1.55-3.395 20.69-14.908 38.674-31.158 50.57z"/></symbol><symbol viewBox="0 0 96.124 96.123" id="facebook" xmlns="http://www.w3.org/2000/svg"><path d="M72.089.02L59.624 0C45.62 0 36.57 9.285 36.57 23.656v10.907H24.037a1.96 1.96 0 0 0-1.96 1.961v15.803a1.96 1.96 0 0 0 1.96 1.96H36.57v39.876a1.96 1.96 0 0 0 1.96 1.96h16.352a1.96 1.96 0 0 0 1.96-1.96V54.287h14.654a1.96 1.96 0 0 0 1.96-1.96l.006-15.803a1.963 1.963 0 0 0-1.961-1.961H56.842v-9.246c0-4.444 1.059-6.7 6.848-6.7l8.397-.003a1.96 1.96 0 0 0 1.959-1.96V1.98A1.96 1.96 0 0 0 72.089.02z"/></symbol><symbol viewBox="0 0 555.562 555.562" id="google" xmlns="http://www.w3.org/2000/svg"><path d="M543.312 85.472H482.32c-6.762 0-12.24-5.477-12.24-12.24V12.24c0-6.763-5.477-12.24-12.24-12.24h-18.256c-6.762 0-12.238 5.478-12.238 12.24v60.992c0 6.763-5.479 12.24-12.24 12.24h-60.992c-6.764 0-12.24 5.478-12.24 12.24v18.256c0 6.763 5.477 12.24 12.24 12.24h60.992c6.762 0 12.24 5.478 12.24 12.24v60.992c0 6.763 5.477 12.24 12.238 12.24h18.256c6.764 0 12.24-5.477 12.24-12.24v-60.992c0-6.762 5.479-12.24 12.24-12.24h60.992c6.764 0 12.24-5.478 12.24-12.24V97.712c0-6.763-5.476-12.24-12.24-12.24z"/><path d="M35.719 521.669c10.459 7.681 22.534 14.131 36.225 19.37 13.69 5.22 27.265 8.953 40.729 11.181 13.464 2.222 26.763 3.342 39.896 3.342 59.646 0 106.39-14.578 140.228-43.733 31.156-27.161 46.744-58.538 46.744-94.15 0-12.681-1.836-24.541-5.508-35.558-3.672-11.016-8.465-20.478-14.357-28.378a176.302 176.302 0 0 0-19.529-22.032c-7.123-6.787-14.246-12.962-21.365-18.525-7.124-5.562-13.635-10.899-19.529-16.028-5.9-5.116-10.686-10.459-14.357-16.028-3.672-5.557-5.508-11.236-5.508-17.025 0-8.017 2.559-15.526 7.681-22.534 5.117-7.008 11.353-13.801 18.697-20.368 7.344-6.561 14.688-13.739 22.038-21.53 7.344-7.791 13.574-18.084 18.697-30.881 5.115-12.803 7.68-27.436 7.68-43.905 0-19.584-4.338-38.397-13.023-56.426-6.775-14.07-15.715-25.698-26.824-34.884-5.208-4.309-4.418-7.185 2.338-7.185h20.593c6.764 0 16.971-2.767 22.805-6.182l23.947-14.015c5.832-3.415 5.086-6.181-1.678-6.181H208.677c-20.698 0-41.518 2.228-62.436 6.677-30.943 6.897-56.978 22.656-78.122 47.247-21.15 24.596-31.72 52.473-31.72 83.63 0 32.944 11.854 60.325 35.557 82.136 23.703 21.812 52.136 32.718 85.301 32.718 3.586 0 7.484-.159 11.708-.478 6.457-.489 11.236.447 10.581 2.43a108.254 108.254 0 0 1-1.261 3.562c-1.114 3.005-2.001 5.398-2.668 7.179s-1.224 3.954-1.671 6.505a44.99 44.99 0 0 0-.667 7.846c0 12.001 4.749 25.263 14.26 39.792 3.702 5.655 1.627 10.086-5.117 10.465a392.431 392.431 0 0 0-37.852 3.997c-16.475 2.563-33.721 6.572-51.75 12.025-18.03 5.453-34.168 13.354-48.409 23.703-14.248 10.349-24.933 22.649-32.051 36.892C4.123 422.82.01 437.839.01 451.407c0 14.92 3.342 28.434 10.019 40.569 6.663 12.11 15.225 22.012 25.69 29.693zm122.865-297.977c-10.239-5.784-18.923-13.299-26.041-22.534-7.124-9.235-13.354-19.639-18.697-31.218-5.343-11.573-9.296-23.152-11.854-34.725-2.559-11.567-3.837-22.589-3.837-33.054 0-21.371 5.679-39.731 17.026-55.086C126.534 31.72 142.556 24.04 163.26 24.04c14.688 0 27.987 4.565 39.896 13.696 11.903 9.131 21.249 20.698 28.042 34.719 6.787 14.027 12.02 28.55 15.692 43.575 3.672 15.024 5.508 29.21 5.508 42.57 0 16.879-2.785 31.225-8.348 43.042-2.876 6.114-9.29 15.184-14.572 19.395-9.492 7.564-22.332 11.346-38.513 11.346-11.346-.007-22.148-2.895-32.381-8.691zM70.775 400.315c6.01-10.459 13.69-18.807 23.036-25.043 9.345-6.23 20.251-11.353 32.717-15.355 12.46-4.009 24.48-6.787 36.059-8.348 11.573-1.561 23.373-2.344 35.392-2.344 3.109 0 5.894.043 8.36.122 4.615.153 10.625 2.1 13.434 4.039 1.426.985 3.121 2.161 5.085 3.52 5.453 3.788 9.125 6.347 11.016 7.675 1.885 1.334 5.343 3.898 10.349 7.681 5.006 3.788 8.568 6.628 10.686 8.519 2.111 1.892 5.177 4.73 9.18 8.513 4.009 3.788 6.953 7.068 8.85 9.854a957.132 957.132 0 0 0 7.013 10.178c2.779 4.009 4.725 7.846 5.846 11.523a185.734 185.734 0 0 1 3.17 12.02c1.004 4.34 1.506 8.85 1.506 13.514 0 14.026-3.066 26.267-9.18 36.726-6.126 10.459-14.413 18.642-24.873 24.548-10.465 5.894-21.646 10.232-33.556 13.017-11.91 2.785-24.431 4.174-37.559 4.174-14.247 0-28.378-1.671-42.399-5.006a168.938 168.938 0 0 1-40.227-15.189c-12.803-6.794-23.152-16.139-31.053-28.048-7.901-11.91-11.854-25.423-11.854-40.563-.013-13.364 2.992-25.262 9.002-35.727z"/></symbol><symbol viewBox="0 0 438.536 438.536" id="instagram" xmlns="http://www.w3.org/2000/svg"><path d="M421.981 16.562C410.941 5.519 397.711 0 382.298 0H56.248C40.83 0 27.604 5.521 16.561 16.562 5.52 27.6.001 40.828.001 56.243V382.29c0 15.413 5.518 28.644 16.56 39.683 11.043 11.04 24.272 16.563 39.687 16.563h326.046c15.41 0 28.644-5.523 39.684-16.563 11.043-11.039 16.557-24.27 16.557-39.683V56.243c-.001-15.418-5.514-28.639-16.554-39.681zM157.462 158.025c17.224-16.652 37.924-24.982 62.097-24.982 24.36 0 45.153 8.33 62.381 24.982 17.228 16.655 25.837 36.785 25.837 60.386 0 23.598-8.609 43.729-25.837 60.379-17.228 16.659-38.014 24.988-62.381 24.988-24.172 0-44.87-8.336-62.097-24.988-17.228-16.652-25.841-36.781-25.841-60.379 0-23.601 8.613-43.73 25.841-60.386zm231.403 212.564c0 4.945-1.718 9.083-5.141 12.416-3.433 3.33-7.519 4.996-12.282 4.996h-305.2c-4.948 0-9.091-1.666-12.419-4.996-3.333-3.326-4.998-7.471-4.998-12.416V185.575H89.08c-3.805 11.993-5.708 24.462-5.708 37.402 0 36.553 13.322 67.715 39.969 93.511 26.65 25.786 58.721 38.685 96.217 38.685 24.744 0 47.583-5.903 68.527-17.703 20.937-11.807 37.486-27.839 49.676-48.112 12.183-20.272 18.274-42.4 18.274-66.38 0-12.94-1.91-25.406-5.715-37.402h38.547V370.59h-.002zm0-254.963c0 5.52-1.903 10.184-5.716 13.99-3.805 3.809-8.466 5.711-13.989 5.711h-49.676c-5.517 0-10.185-1.903-13.99-5.711-3.806-3.806-5.708-8.47-5.708-13.99V68.522c0-5.33 1.902-9.945 5.708-13.848 3.806-3.901 8.474-5.854 13.99-5.854h49.676c5.523 0 10.185 1.952 13.989 5.854 3.812 3.903 5.716 8.518 5.716 13.848v47.104z"/></symbol><symbol viewBox="0 0 310.05 310.05" id="pinterest" xmlns="http://www.w3.org/2000/svg"><path d="M245.265 31.772C223.923 11.284 194.388 0 162.101 0c-49.32 0-79.654 20.217-96.416 37.176-20.658 20.9-32.504 48.651-32.504 76.139 0 34.513 14.436 61.003 38.611 70.858 1.623.665 3.256 1 4.857 1 5.1 0 9.141-3.337 10.541-8.69.816-3.071 2.707-10.647 3.529-13.936 1.76-6.495.338-9.619-3.5-14.142-6.992-8.273-10.248-18.056-10.248-30.788 0-37.818 28.16-78.011 80.352-78.011 41.412 0 67.137 23.537 67.137 61.425 0 23.909-5.15 46.051-14.504 62.35-6.5 11.325-17.93 24.825-35.477 24.825-7.588 0-14.404-3.117-18.705-8.551-4.063-5.137-5.402-11.773-3.768-18.689 1.846-7.814 4.363-15.965 6.799-23.845 4.443-14.392 8.643-27.985 8.643-38.83 0-18.55-11.404-31.014-28.375-31.014-21.568 0-38.465 21.906-38.465 49.871 0 13.715 3.645 23.973 5.295 27.912-2.717 11.512-18.865 79.953-21.928 92.859-1.771 7.534-12.44 67.039 5.219 71.784 19.841 5.331 37.576-52.623 39.381-59.172 1.463-5.326 6.582-25.465 9.719-37.845 9.578 9.226 25 15.463 40.006 15.463 28.289 0 53.73-12.73 71.637-35.843 17.367-22.418 26.932-53.664 26.932-87.978 0-26.826-11.52-53.272-31.604-72.556z"/></symbol><symbol viewBox="0 0 24 24" id="telegram" xmlns="http://www.w3.org/2000/svg"><path d="M12 24c6.629 0 12-5.371 12-12S18.629 0 12 0 0 5.371 0 12s5.371 12 12 12zM5.491 11.74l11.57-4.461c.537-.194 1.006.131.832.943l.001-.001-1.97 9.281c-.146.658-.537.818-1.084.508l-3-2.211-1.447 1.394c-.16.16-.295.295-.605.295l.213-3.053 5.56-5.023c.242-.213-.054-.333-.373-.121l-6.871 4.326-2.962-.924c-.643-.204-.657-.643.136-.953z"/></symbol><symbol viewBox="0 0 512 512" id="twitter" xmlns="http://www.w3.org/2000/svg"><path d="M512 97.248c-19.04 8.352-39.328 13.888-60.48 16.576 21.76-12.992 38.368-33.408 46.176-58.016-20.288 12.096-42.688 20.64-66.56 25.408C411.872 60.704 384.416 48 354.464 48c-58.112 0-104.896 47.168-104.896 104.992 0 8.32.704 16.32 2.432 23.936-87.264-4.256-164.48-46.08-216.352-109.792-9.056 15.712-14.368 33.696-14.368 53.056 0 36.352 18.72 68.576 46.624 87.232-16.864-.32-33.408-5.216-47.424-12.928v1.152c0 51.008 36.384 93.376 84.096 103.136-8.544 2.336-17.856 3.456-27.52 3.456-6.72 0-13.504-.384-19.872-1.792 13.6 41.568 52.192 72.128 98.08 73.12-35.712 27.936-81.056 44.768-130.144 44.768-8.608 0-16.864-.384-25.12-1.44C46.496 446.88 101.6 464 161.024 464c193.152 0 298.752-160 298.752-298.688 0-4.64-.16-9.12-.384-13.568 20.832-14.784 38.336-33.248 52.608-54.496z"/></symbol><symbol viewBox="0 0 310 310" id="youtube" xmlns="http://www.w3.org/2000/svg"><path d="M297.917 64.645c-11.19-13.302-31.85-18.728-71.306-18.728H83.386c-40.359 0-61.369 5.776-72.517 19.938C0 79.663 0 100.008 0 128.166v53.669c0 54.551 12.896 82.248 83.386 82.248h143.226c34.216 0 53.176-4.788 65.442-16.527C304.633 235.518 310 215.863 310 181.835v-53.669c0-29.695-.841-50.16-12.083-63.521zm-98.896 97.765l-65.038 33.991a9.997 9.997 0 0 1-14.632-8.863v-67.764a10 10 0 0 1 14.609-8.874l65.038 33.772a10 10 0 0 1 .023 17.738z"/></symbol></svg>